<?xml version="1.0" encoding="iso-8859-1"?>
<!-- Generator: Adobe Illustrator 19.0.0, SVG Export Plug-In . SVG Version: 6.00 Build 0)  -->
<svg version="1.1" id="Capa_1" fill="#cccccc" xmlns="http://www.w3.org/2000/svg" xmlns:xlink="http://www.w3.org/1999/xlink" x="0px" y="0px"
	 viewBox="0 0 416 416" style="enable-background:new 0 0 416 416;" xml:space="preserve">
<g>
	<g>
		<path d="M208,0C93.125,0,0,93.125,0,208s93.125,208,208,208s208-93.125,208-208S322.875,0,208,0z M320.41,52.919
			c-7.755,2.313-15.28,4.779-22.57,7.401c-5.986-7.626-15.106-12.127-24.8-12.24c-2.343,0.005-4.677,0.273-6.96,0.8
			c-6.96-11.76-13.52-21.52-18.8-28.96C273.722,25.611,298.648,36.863,320.41,52.919z M266.24,325.68
			c-3.287-1.181-6.748-1.803-10.24-1.84c-10.544,0.045-20.389,5.282-26.32,14c-31.137-13.227-59.093-32.946-82-57.84
			c11.209-13.146,9.639-32.889-3.507-44.097c-1.773-1.512-3.709-2.821-5.773-3.903c10.477-34.258,29.341-65.358,54.88-90.48
			c27.15,1.293,53.831,7.556,78.72,18.48c-3.429,17.112,7.664,33.764,24.776,37.192c0.301,0.06,0.602,0.116,0.904,0.168
			C300.542,242.34,289.571,287.118,266.24,325.68z M272,355.6c0,8.837-7.163,16-16,16s-16-7.163-16-16s7.163-16,16-16
			S272,346.763,272,355.6z M112,152.88c19.063-5.983,38.779-9.637,58.72-10.88c-22.044,24.94-38.42,54.363-48,86.24
			c-3.183,0.055-6.339,0.595-9.36,1.6c-7.208-14.703-13.02-30.05-17.36-45.84c10.305-5.524,16.776-16.228,16.88-27.92
			C112.644,154.998,112.35,153.93,112,152.88z M272.96,112c1.853-0.024,3.7-0.211,5.52-0.56c3.52,9.12,6.587,18.213,9.2,27.28
			c-3.029,1.835-5.732,4.16-8,6.88c-22.13-9.68-45.594-15.964-69.6-18.64c12.173-9.93,25.181-18.79,38.88-26.48
			C254.866,107.676,263.651,111.893,272.96,112z M256.96,80c0-8.837,7.163-16,16-16s16,7.163,16,16s-7.163,16-16,16
			c-8.743-0.131-15.761-7.256-15.76-16H256.96z M288,166.16c0-8.837,7.163-16,16-16s16,7.163,16,16c0,8.837-7.163,16-16,16
			S288,174.997,288,166.16z M85.52,60.72C119.828,31.893,163.189,16.061,208,16c5.6,0,11.12,0,16.64,0.8
			c9.983,12.687,19.072,26.052,27.2,40c-6.659,5.887-10.523,14.312-10.64,23.2c0.012,1.906,0.2,3.808,0.56,5.68
			c-19.818,11.067-38.219,24.498-54.8,40c-27.149-0.129-54.148,4.028-80,12.32c-5.178-7.099-13.046-11.756-21.76-12.88
			C83.155,103.697,83.262,82.122,85.52,60.72z M80.96,140.64C80.96,140.64,80.96,140.64,80.96,140.64l0.08,0.08
			c8.837,0,16,7.163,16,16c0,8.837-7.163,16-16,16c-8.837,0-16-7.163-16-16C64.996,147.884,72.123,140.684,80.96,140.64z M68,77.28
			c-0.846,16.589-0.525,33.216,0.96,49.76c-11.892,4.923-19.677,16.49-19.76,29.36c0.004,1.96,0.192,3.915,0.56,5.84
			c-11.042,5.958-21.727,12.556-32,19.76C23.238,142.727,40.795,106.13,68,77.28z M16,208c0-1.52,0-3.04,0-4.64
			c12.562-10.011,25.942-18.949,40-26.72c5.922,7.166,14.704,11.352,24,11.44c5.01,17.385,11.709,34.239,20,50.32
			c-11.915,12.691-11.286,32.639,1.406,44.554c3.059,2.872,6.661,5.104,10.594,6.566c-1.792,29.518,0.578,59.142,7.04,88
			C55.901,344.509,16.233,279.248,16,208z M107.44,259.92h-0.32c0-8.837,7.163-16,16-16s16,7.163,16,16s-7.163,16-16,16
			C114.409,275.746,107.438,268.633,107.44,259.92z M202.4,399.52c-22.182-0.623-44.085-5.117-64.72-13.28
			c-8.306-30.955-11.574-63.046-9.68-95.04c2.353-0.322,4.662-0.912,6.88-1.76c24.817,27.64,55.405,49.489,89.6,64
			c0,0.88,0,1.68,0,2.48c-0.018,6.432,1.936,12.714,5.6,18C221.314,382.938,212.074,391.484,202.4,399.52z M227.378,398.629
			c5.294-4.824,10.143-9.7,14.542-14.629c4.342,2.193,9.136,3.344,14,3.36c11.062-0.102,21.288-5.91,27.04-15.36
			c5.76,1.36,11.6,2.64,17.6,3.68C277.978,388.221,253.077,396.029,227.378,398.629z M320.813,362.79
			c-11.416-1.599-22.514-3.675-33.213-6.15c0,0,0-0.72,0-1.04c0.002-7.733-2.846-15.195-8-20.96
			c25.456-41.572,37.443-89.994,34.32-138.64c3.82-1.35,7.349-3.413,10.4-6.08c25.746,19.224,48.969,41.613,69.12,66.64
			C382.172,299.27,356.521,336.788,320.813,362.79z M397.6,236.56c-18.997-22.331-40.467-42.434-64-59.92
			c1.233-3.358,1.882-6.903,1.92-10.48c0-17.673-14.327-32-32-32c-2.827-9.867-6.187-19.787-10.08-29.76
			c7.214-6.042,11.35-14.991,11.28-24.4c-0.031-1.637-0.191-3.269-0.48-4.88c10.16-3.6,20.72-6.96,32-10
			c48.059,43.014,71.216,107.344,61.6,171.12L397.6,236.56z"/>
	</g>
</g>
<g>
</g>
<g>
</g>
<g>
</g>
<g>
</g>
<g>
</g>
<g>
</g>
<g>
</g>
<g>
</g>
<g>
</g>
<g>
</g>
<g>
</g>
<g>
</g>
<g>
</g>
<g>
</g>
<g>
</g>
</svg>
