<svg id="Capa_1" fill="#cccccc" enable-background="new 0 0 512 512" height="512" viewBox="0 0 512 512" width="512" xmlns="http://www.w3.org/2000/svg"><path d="m310.132 166.603-54.132-17.248-54.132 17.248-.325-56.813-33.131-46.153 53.932-17.864 33.656-45.773 33.656 45.772 53.932 17.864-33.131 46.153z"/><path d="m139.639 225.144-44.306-14.116-44.305 14.116-.267-46.5-27.115-37.774 44.142-14.622 27.546-37.462 27.546 37.462 44.142 14.622-27.117 37.775z"/><path d="m372.361 225.144-.266-46.5-27.117-37.775 44.142-14.622 27.546-37.462 27.546 37.462 44.142 14.622-27.116 37.775-.267 46.5-44.305-14.116z"/><path d="m0 307.782v204.218h150.333v-204.218z"/><path d="m330.667 258.56h-150.334v253.44h150.334z"/><path d="m512 340.278h-151.333v171.722h151.333z"/></svg>